<svg
  xmlns="http://www.w3.org/2000/svg"
  xml:space="preserve"
  viewBox="95 385 270 270"
>
  <title>procclean</title>
  <circle cx="229.3" cy="520" r="120.6" fill="#2c2d2c" />
  <path
    fill="#54ebdd"
    d="M254.5 538a111 111 0 0 0 77.8-9.4q6-3.2 10.8-8c8.4-8.4 12.8-18 7-30.1q9.3 3.2 8.8 19.2l-.4 2.2a43 43 0 0 1-18.4 20.8q-12.1 5.3-25 10.3l-15.6 3h-4l-28.8-.8-10.2-3.5-13.5-3.3-8.5-5.6.3-.8q4.3 1.1 9.5 2.8l3.3 1.2.4.2 3.2.9zm-17.7 74.2c-13.2 0-13 0-13.2-12.3-.2-5 1.6-7.7 7-7.7v-36.8c-7.2 7.6-13.9 14-20 21.2-1.4 1.7-.8 5.2-.7 8 .3 4.8-1.4 6.9-6.6 6.9-14.2-.3-13.4 1.6-13.2-14.5 0-3.7 1.8-6.1 5.8-5.5 9 1.8 15.2-2.5 20.4-9.2q2.5-2.9 5.3-5.5c4.7-5.1 11.3-9 9.1-18l2.2-.4 4 7q.9 2.2 2.2 4c4.1 4.5 8.7 8.5 12.6 13.1 5.5 6.6 11.3 11 20.5 9.2 3.7-.7 5.8 1.5 5.5 5.5v1.1c-.1 14.1 2 13-14 13.2-4.1 0-6.4-1.9-5.8-6 1.1-6.8-2-11.3-6.7-15.5-4.7-4-8.7-8.8-13.1-13.2h-1v34.3c2.2 1.6 5.8 2.8 6.1 4.4q1 7.4-.3 14.7c-.1.9-3.7 1.3-6.1 2M204.7 579l-8.8-3v9.4h8.5zm66.5 6.5 1.3-8h-8.8v8.3zm-33 14-8.8-2.4v9h8.8zm-7.5-133.2V449c-6.8-2.6-9.2-7.2-6.6-16.6 2-7.9 9.2-3 14-4 2.8-.6 5.3.5 5.6 4.3 1.2 11.9.4 14-6.6 16V480c6.6-6.4 13.5-12.5 19.7-19.2 1.6-1.5 1.1-5.1 1.1-7.8-.2-4.8 1.5-7.1 6.6-7.1 15.8.2 12.8-.6 13.2 13.1.2 5.3-1.7 8-7 7-8.2-1.5-13.9 2-18.6 8.2a56 56 0 0 1-7 7.6c-5.5 5-10.8 10.1-7.7 19.2-5.1-1-7-3.1-6.9-7.9q.5-13 .2-26.8m32.6-13.3v7.1h8.6v-9q-4.4.4-8.6 2m-30-19.5c-7.7.3-2.7 5.5-3.9 8.5h9.1c-1.6-3.2 3.1-8.6-5.2-8.5M169 545.1q12 1.7 18.4-7.6c.7-1 2-1.7 2.7-2.7 5.9-9.1 14.3-11.5 24.8-10.5 4.3.3 7.2 1.4 9.4 6-6.2 0-11.9-.3-17.6.1-2.5.2-4.8 1.9-7.2 3l-.3.3c-5 5-9 11.3-14.8 14.5-5.5 3-12.7 2.5-19.6 3.7.7 5.8-3.2 6.1-8.3 6-11.7-.2-11.5.9-11.6-11.8 0-7.3.5-7.7 8-7.7 2.3 0 4.7-.3 7 .2 1.7.5 3.1 2.2 4.6 3.4q1.9 1.6 4.5 3m-18.7 2 .2 4.9h8.4v-9.1c-3 2.4-7-2.2-8.7 4.3m15.7-55.7c-5.5.5-7.7-1.7-7.7-6.8-.1-13.7-.2-13.5 13.2-13.3 5.3 0 6.6 2.6 6.4 7.3 1.4 0 2.5.4 3.5.2 10.2-2 17.1 2.6 23.4 10 4.6 5.5 10.4 10 15.9 15-2.8 3.8-5.2 4-8.4.6-4-4.3-9-7.7-12.4-12.3-5.6-7.3-12.6-9-21.5-7-.3 8.2-6.7 6-12.4 6.3m1.6-14.7c-7.6.5-2.7 5.5-3.7 8.6h9.8c-3-3.1 2.3-8.7-6.1-8.7m22.4-19c0-11.4 0-11.4 11.2-11.3 8.6 0 8.6 0 8.8 8.5.1 11.4.1 11.4-11.6 11.5-8.1 0-8.4-.2-8.4-8.8m11.4 3.3c6.2-1.1 1.6-5.5 3.2-9l-8.7.4v8q.7.5 1.2.5z"
  />
  <path
    fill="#98f641"
    d="m351 465-17.9 22.3c8.8 7.5 9.6 9.7 6 18.1q-2.8-1.6-5.2-3.5-11.3-8.9-22.7-17.2c-3-2.2-2.3-3.5.2-5.5q7.7.2 15.2 1v1.9l7.3-9.3 22-27.7c.8-1 1.6-2.8 2.8-3.3 1.7-.6 3.8-.4 5.8-.6 0 1.9 1 4.4 0 5.7q-6.3 8.9-13.5 18m-55.1 61.8q-5.5 4-11.2 7.8c-7.1 4.6-13.2 5-22.2 1.6l6.8-2.8 6.4-3.3-28.4 3.6q-8.9-4.3-16.4-9.9c25.3 3.1 53.8-3.8 60.9-16.2a83 83 0 0 1-49.3 12l-17.6-5c2.2-4.7 4.6-7.1 9.1-5.7 22 6.8 40.7.4 58.1-13.1a30 30 0 0 1 4.7-2.9l27.5 20.6c7.4 5.6 6.7 12.5-2 16.5a93 93 0 0 1-34.6 8l9.5-10 1-1.3 1-1.3 1-1.2q.2-.7 0-1l-1 .6-1.1 1.1-1.3 1q-.8.3-1 .9m-29.4 21.5q14.2-.2 28.7.4-9.2 6.5-19.6 12c-1.5.8-4.3 0-6-1-4-2-7.7-4.5-12.6-7.5zm33.2.9q7.2-2.1 15.3-3.3a73 73 0 0 1-22.3 19.5c-4.4 2.2-8.2 2.6-11.5 0a559 559 0 0 0 18.6-16.4m3.6-64.4a2320 2320 0 0 1 35 27.6c-2.9.6-5 1.5-5.8 1q-16-12-31.8-24.3-.2-.5-.3-1.9a10 10 0 0 1 3-2.4m-60 56.8q5.9 1 12.7 3c-5.3 4.9-8.6 0-12.7-3"
  />
</svg>
