<svg
  xmlns="http://www.w3.org/2000/svg"
  xml:space="preserve"
  viewBox="120 405 786 220"
>
  <defs>
    <style>
    .cyan {
      fill: #54ebdd;
    }
    .lime {
      fill: #98f641;
    }
    </style>
  </defs>
  <g id="icon">
    <circle cx="230" cy="515" r="110" fill="#2c2d2c" />
    <path
      d="M253 530.4c24.8 5.2 48.5 3.4 70.9-8.6q5.5-3 9.9-7.4c7.7-7.6 11.7-16.4 6.4-27.4q8.5 2.9 8 17.5l-.4 2a39 39 0 0 1-16.7 19q-11.1 4.8-22.8 9.4l-14.3 2.8h-3.6l-26.3-.8-9.3-3.2-12.3-3-7.8-5.1.3-.7q3.9 1 8.7 2.5l3 1.1.3.2 3 .8zM236.8 598c-12 .1-11.8.1-12-11.2-.2-4.6 1.4-7 6.4-7v-33.6c-6.6 6.9-12.7 12.8-18.3 19.3-1.3 1.6-.7 4.8-.6 7.3.3 4.4-1.3 6.3-6 6.3-13-.2-12.3 1.5-12.1-13.2 0-3.4 1.7-5.6 5.3-5 8.3 1.6 13.9-2.3 18.6-8.4q2.3-2.6 4.9-5c4.2-4.7 10.3-8.3 8.3-16.4l2-.4 3.6 6.3q.8 2.1 2 3.8c3.8 4 8 7.7 11.5 11.9 5 6 10.3 10 18.7 8.4 3.4-.7 5.3 1.3 5 5v1c-.1 12.9 1.8 11.9-12.7 12-3.8 0-5.9-1.7-5.3-5.4 1-6.2-1.8-10.3-6.1-14.2-4.3-3.7-8-8-12-12h-.9v31.3c2 1.4 5.3 2.5 5.6 4q.8 6.7-.3 13.4c-.1.8-3.4 1.2-5.6 1.8m-29.3-30.2-8-2.7v8.6h7.8zm60.7 6 1.2-7.4h-8v7.6zm-30.1 12.8-8-2.3v8.3h8zM231.3 465v-15.9c-6.2-2.3-8.4-6.5-6.1-15.1 1.9-7.2 8.4-2.8 12.8-3.7 2.6-.5 4.8.5 5.1 4 1.1 10.8.4 12.8-6 14.5v28.7c6-5.8 12.3-11.4 18-17.5 1.4-1.4 1-4.7 1-7.1-.2-4.4 1.3-6.5 6-6.5 14.4.2 11.7-.5 12 12 .2 4.8-1.5 7.2-6.3 6.4-7.5-1.4-12.7 1.7-17 7.4a51 51 0 0 1-6.4 7c-5 4.6-9.9 9.2-7 17.5-4.7-1-6.5-2.9-6.3-7.2q.4-11.9.2-24.5m29.7-12.1v6.5h7.8v-8.2q-4 .3-7.8 1.7m-27.4-17.7c-7 .3-2.4 5-3.5 7.7h8.3c-1.5-2.9 2.8-7.8-4.8-7.7M175 536.8q11 1.6 16.8-6.9c.6-1 1.7-1.6 2.4-2.5 5.4-8.3 13.1-10.5 22.6-9.6 4 .3 6.6 1.3 8.6 5.5-5.6 0-10.8-.3-16 .1-2.3.2-4.4 1.7-6.6 2.7l-.3.3c-4.5 4.5-8.2 10.3-13.5 13.2-5 2.7-11.6 2.3-17.9 3.4.7 5.3-2.9 5.6-7.5 5.5-10.7-.2-10.5.8-10.6-10.8 0-6.6.4-7 7.2-7 2.2 0 4.4-.3 6.4.2 1.6.4 2.9 2 4.3 3.1q1.7 1.4 4.1 2.8m-17.1 1.8.2 4.4h7.7v-8.3c-2.7 2.2-6.5-2-8 3.9m14.3-50.8c-5 .5-7-1.5-7-6.2-.1-12.5-.2-12.3 12.1-12.1 4.8 0 6 2.4 5.8 6.6 1.3 0 2.3.4 3.2.2 9.3-1.8 15.6 2.4 21.3 9.2 4.2 5 9.5 9 14.5 13.6-2.5 3.5-4.7 3.7-7.6.6-3.6-3.9-8.2-7-11.3-11.2-5.1-6.7-11.5-8.3-19.6-6.5-.3 7.6-6.2 5.6-11.4 5.8m1.5-13.4c-6.9.5-2.5 5-3.4 7.9h9c-2.7-2.9 2.1-8-5.6-8M194 457c0-10.4 0-10.4 10.3-10.3 7.8 0 7.8 0 8 7.7.1 10.4.1 10.4-10.6 10.5-7.4 0-7.7-.2-7.7-8m10.4 3c5.7-1 1.5-5 3-8.2l-8 .4v7.2q.7.5 1.1.5z"
      class="cyan"
    />
    <path
      d="m341 461.4-16.3 20.4c8 6.8 8.7 8.8 5.5 16.5q-2.6-1.5-4.8-3.2c-6.9-5.3-13.6-10.8-20.7-15.7-2.8-2-2.1-3.2.2-5q7 .2 13.8.9l.1 1.7 6.6-8.5 20-25.2c.8-1 1.5-2.6 2.6-3 1.6-.6 3.5-.4 5.3-.6 0 1.7 1 4 .1 5.2q-5.8 8.1-12.4 16.5m-50.3 56.3q-5 3.7-10.2 7.1c-6.5 4.2-12 4.6-20.2 1.5l6.2-2.6 5.8-3-25.9 3.3q-8.1-3.9-15-9c23.1 2.8 49.1-3.5 55.6-14.8a76 76 0 0 1-45 11l-16-4.6c2-4.3 4.2-6.5 8.3-5.2 20 6.2 37.1.3 53-12a27 27 0 0 1 4.3-2.6q12.8 9.5 25 18.8c6.8 5.1 6.2 11.4-1.8 15a85 85 0 0 1-31.5 7.4l8.6-9.2.9-1.2 1-1.2.8-1.1q.2-.6.1-.9l-1 .6-1 1-1.1.9q-.8.3-.9.8m-26.9 19.6q13-.2 26.2.4-8.4 5.9-17.9 11c-1.3.7-3.9-.1-5.5-1-3.6-1.8-7-4.1-11.4-6.8zm30.3.8q6.6-1.9 14-3a67 67 0 0 1-20.4 17.8c-4 2-7.5 2.4-10.5.1a510 510 0 0 0 17-15m3.3-58.8c10.4 8 20.5 16 32 25.2-2.7.5-4.6 1.4-5.4.9q-14.6-11-29-22.2-.2-.4-.3-1.7a9 9 0 0 1 2.7-2.2M242.8 531q5.4.9 11.6 2.7c-4.8 4.5-7.8 0-11.6-2.7"
      class="lime"
    />
  </g>
  <g id="text">
    <path
      d="M906 560.5q-3 1-6 1H439.6c-4.1 0-7 .7-9.4 4.5-4.2 6.5-11 9-18.4 9.6q-10.5.5-21 .2c-1 0-2-.9-3.2-1.6q-.4-1-.5-1.9c1.7-1 3.3-2.2 5-2.2 6.7-.3 13.3-.3 20.7-.5q1.6-.3 2.2-.6 8.8-1.6 12.5-9.6c1.3-2.8 3-3.7 6-3.7h437.9l33.9.3q.6 2 .7 4.5"
      class="cyan"
    />
    <path
      d="m389.7 493 13-1.2 1.6 5.2c5.7-4.7 12.2-7.7 19.2-5.6a31 31 0 0 1 12.8 7.8c7.7 7.9 7.5 23 .6 32.3-6.6 8.8-16.1 9.8-31.7 3.1v18.6c1.9 0 3.8-.4 5.3.1 1.7.6 3.1 2.1 4.6 3.3-1.4 1.4-2.9 4.1-4.4 4.2-6.6.2-13.2-.4-20.3-.8-2.3-5.3-2-5.7 6-7.3v-51.8q-4.3-1.6-8.1-3.5c-.3-.1.7-2.7 1.4-4.4m20 35.8c2.7 1 5.2 2.7 7.9 3 8.1 1 14.1-3.7 16-12.3 1.8-9-2.7-17.9-10.4-20.2-7-2.2-15 .9-17.7 6.6-2.8 5.7-.8 17.6 4.3 23M867.7 517v15.4q.8.4 1.5.5c2.4.3 5.6-.6 5.6 3.2 0 3.6-2.9 3.8-5.7 3.8h-12.5c-2.6 0-5.5-.2-5.3-3.4 0-1.5 2.7-3 4.3-4.2.9-.6 2.2-.5 3.4-.7v-30.2l-7.5-3.5c1-4.2 5.7-6.5 12.5-5.8 1.4.1 2.6 2.3 4.3 4 2.6-1.2 6-3.3 9.6-4.4 12.1-3.5 21 3.1 21.3 15.6q.3 9.8 0 19.5c-.1 3.6.1 6.3 4.7 6.3q1 .1 2.2 2 .1 2.5-.2 3.8l-2.1.8-7.8.2h-6.6q-2.9 0-5.2-.3c-1.7-6-1-6.8 6.9-8.2 0-8.5.4-17.1-.1-25.7q-.8-8.9-13-6.9l-2.4.9c-3.6 2.1-8.5 2.5-8 8.6zm-382.9-25c3.1-.5 6.3-1.6 9-.8 2.4.6 4.6 3 6.1 5.3.7 1.1 0 4.4-1 5-1.3.8-4.4.5-5.3-.6-3-3.5-6-2.5-8.8-.6a94 94 0 0 0-9.9 7.6c-1 .8-1.6 2.5-1.7 3.8v20.9H486c2.6 0 5.5 0 5.4 3.6s-3 3.3-5.5 3.3h-28c-5-.1-5.6-1-4.5-6.5h7.3c3.8.3 5.6-1.2 4.9-6v-27.1l-5.6.5c-2.5-.4-5.8.4-6.3-4 1.2-1.3 2.4-2.9 3.7-3q7.3-1.1 15.1-1c.5 2.7.6 5 .7 8l7.8-6.4h.3l3-1.9zM684 472.7q10-1.9 19.9-2.7c.7 0 2.3 2.8 2.3 4.3v58.6c4.5 0 8.5-.3 12.4.1 1.6.2 3 2.2 4.4 3.3-1.5 1.2-3 3.3-4.4 3.3a615 615 0 0 1-32.5-.1c-1.5 0-4-2-4.3-3.4-.8-3 1.8-3 4.1-3.1 12.8-.3 12.8-.3 12.8-13.4v-41.2q-6.9-.5-14.1-1.3-.5-2.1-.5-4.4M815 510q5.2.2 10.7-1c.4-5.7-.8-9.6-6.7-10-6-1.8-11.4.5-16.7 2.9-2.3 1-4.5 2.2-6.1-1.2q-2.2-4.9 2.6-5.9c6.9-1.4 13.9-3.5 20.8-3.4 9.4.2 14 6 14.2 15.7q.2 12.2 0 24.7l4 .2c2.7-.3 5.3.6 4.8 3.3-.3 1.8-2.8 4-4.6 4.5-3.2.7-6.6.2-10.2.2l-1.2-3.1c-6.4 1.4-12.3 3.5-18.2 4a14.5 14.5 0 0 1-10.2-26.3c2.7-2 6.6-2.5 10.7-3.6q1.6-.3 2.3-.6zm-12.2 21.6c5.8 3.5 14.3 2.6 20.8-2.4 4.5-3.5 1.6-8.1 2.3-13.5-6.9 1-13 1.2-18.8 2.8-6.1 1.7-7.7 6.7-4.3 13.1m-39.6 1.7c3.7-1.3 7.1-2.2 10.1-3.9 2.6-1.4 4.3-1.3 6 1 2 2.8-.1 4.2-2 5.6a27.5 27.5 0 0 1-43.2-15 25 25 0 0 1 11.9-27.5 23.4 23.4 0 0 1 29 5.3 40 40 0 0 1 5.7 13.5c1.1 3.6-.5 5.8-5 5.7h-32.9c.8 10.5 8.7 16.5 20.4 15.3m7.6-27.3q-7-10.3-17.9-7.1c-6 1.8-9.7 6.4-9.7 12h29.1c-.4-1.7-.8-3-1.5-4.9m-215.5 0c5.2 17-2 31.2-17.1 34.6a25 25 0 0 1-26.3-11c-5.4-9-4-22.2 2-30 10.6-14.2 35.3-10.2 41.4 6.3m-7.1 4.8c-3.6-9.2-10.7-13.6-19.3-11.7-7.6 1.7-12.5 9.1-12 18.3.6 8.8 6.6 15.4 14.8 16.1 11.2 1 19-9.2 16.5-22.7m92.3 29.2c-19-6.6-21.3-30.6-9.3-42.5 7.5-7.6 24.2-8.8 32.8-2.6 4.4 3.2 6.3 8.4 4 12.6-.9 1.5-3.2 3-4.8 3-1.4 0-3-2.1-4-3.6-1.3-2.1-1.5-6-3-6.5a23 23 0 0 0-11.6-1c-9.9 1.8-14.9 12.3-11.4 23 3 9.2 13.5 14 22 10 2.9-1.3 5.4-3.2 8.3-4.2 1.5-.5 3.4.3 5 .4-.1 1.9.4 4.6-.6 5.5a28 28 0 0 1-27.4 5.9m-68.1-40.5c8.7-9.6 19.6-10.2 31-6.9 7.4 2.2 9.8 6.7 8.4 14.1-.3 1.6-2.7 3.8-4 3.7-1.5 0-4-2.6-4-3.8.9-6.3-3.5-7.3-7.8-8.2a18 18 0 0 0-17.9 7.3 21 21 0 0 0 1 21.3c4.4 5.7 11.8 8 19.4 5.6 3-1 5.5-3 8.4-4.2 1.5-.5 3.9-.8 4.9 0 2.1 1.7 1.8 4.1-.5 6a29 29 0 0 1-26.2 5.8c-9.1-2.5-14.5-8.7-17.4-17.6a23 23 0 0 1 4.6-22.8z"
      class="lime"
    />
  </g>
</svg>
